<svg xmlns="http://www.w3.org/2000/svg" viewBox="0 0 284 294.35"><defs><style>.cls-1{fill:#1b1464;}.cls-2{fill:#0071bc;}.cls-3{fill:#009245;}</style></defs><g id="Layer_2" data-name="Layer 2"><g id="Layer_1-2" data-name="Layer 1"><path class="cls-1" d="M.62,294.35h0Z"/><path class="cls-1" d="M71.21,203.66c-1-14.77-6-26.68-15.16-35-13.54-12.34-32.57-9.33-41.65,8.45-.14.28-.3.64-.79.37,0-4-.06-8.17,0-12.29,0-1.89-.37-2.63-1.83-2.56a70.17,70.17,0,0,1-8.58,0c-1.95-.16-2.37.83-2.36,3.26.06,16.59,0,33.19,0,49.78q0,37.6,0,75.21c0,2,.06,3.31,2,3.16a67.84,67.84,0,0,1,8.79,0c1.7.11,2-.82,2-2.89-.08-8.84,0-17.69,0-26.54V240.79l.48-.23A33.65,33.65,0,0,0,20,249.61c12,12.55,30.76,10,41.7-5.68C69.61,232.56,72.28,218.85,71.21,203.66Zm-12.93,5.67c0,19.32-10.47,33.27-24,32.47-6.42-.38-11.63-4.31-15.54-11.14-7.1-12.39-6.63-32.31,1.06-44.07,5.66-8.67,12.85-11.56,21.06-8.76,8.65,2.94,14,10.72,16.47,22.27A38.75,38.75,0,0,1,58.28,209.33Z"/><path class="cls-2" d="M71.88,93.2c1-19.06,7.85-33.17,21-40.36s25.22-4,36.13,8.15c1.6,1.77,1.74,2.94.12,4.8a73.31,73.31,0,0,0-5.22,7c-.93,1.35-1.48,1.4-2.6.17-7.42-8.09-15.64-10.28-24.42-4.74-11.19,7-15.72,27.1-9.92,42.82,5.53,15,18.34,20.59,29.6,12.92a19.52,19.52,0,0,0,5-4.83c1-1.37,1.62-1.06,2.47.14,1.86,2.58,3.73,5.13,5.7,7.54,1.07,1.3,1.08,2.07,0,3.44-6.46,8.33-14.14,12.55-21.08,12.82C86.55,144,70.45,121.06,71.88,93.2Z"/><path class="cls-1" d="M147.43,165.15c0-1.72-.29-2.5-1.69-2.45-3.14.12-6.27.11-9.41,0-1.39-.05-1.72.66-1.69,2.41.08,4.11,0,8.24,0,12.36-1.64-2.27-3-4.58-4.6-6.57-9.1-11.09-24-13.12-35.2-4.77-19.85,14.71-24.44,53.72-9,76.72,11.06,16.49,29.06,19.58,41.87,7.22a35.4,35.4,0,0,0,6.84-9.68c.19,4.15.24,8.19.17,12.22,0,1.8.28,2.68,1.8,2.61,3.07-.15,6.13-.13,9.2,0,1.33,0,1.74-.55,1.73-2.36Q147.39,209,147.43,165.15Zm-21.72,70.73c-13.09,13.51-32,3.32-35.14-18.93a46.36,46.36,0,0,1-.53-6.89c0-14.46,5.26-25.94,13.86-30.8,12.31-6.94,25.2,1.08,29.32,18.27C136.71,212.06,133.65,227.68,125.71,235.88Z"/><path class="cls-2" d="M170.2,49.36c-19.19.17-34.38,21.19-34.28,47.44.11,25.94,15.58,46.55,34.83,46.38,19.56-.17,35.07-21,34.93-46.92C205.52,70,189.8,49.19,170.2,49.36Zm.13,77.85c-12.35-.15-21.85-13.62-21.74-30.83.1-17.39,9.8-30.94,22.08-30.84,12.66.1,22.37,13.64,22.3,31.1S183.09,127.36,170.33,127.21Z"/><path class="cls-1" d="M273.65,254c.65,1.45-.31,1.12-.75,1.12-5,0-10.11,0-15.17-.05-.81-.25-1.16-1.23-1.65-1.95q-14.2-21-28.4-41.91c-.48-.7-.83-1.68-1.86-2v45.27a.58.58,0,0,1-.11.15s0,0,0,0c-.42.54-1,.48-1.55.48h-9.69a2,2,0,0,1-1.72-.65,10.67,10.67,0,0,1-.37-3.79q0-64.12,0-128.25c0-1-.26-2,.41-2.87h.41c3.59,0,7.18.1,10.76-.08,1.71-.08,2.19.77,1.84,2.86l0,76.29v9.59c3.84-5.88,7.24-11.09,10.65-16.29q9.15-14,18.31-27.91c.49-.75.94-1.48,1.83-1.46,5.24.09,10.49.11,15.72.17.1,0,.2.19.47.46-.82,1.2-1.65,2.37-2.46,3.55-8.94,13-17.85,26.1-26.84,39.06-1.25,1.8-1.22,2.79,0,4.58,9.7,13.83,19.31,27.78,29,41.69C272.89,252.68,273.26,253.35,273.65,254Z"/><path class="cls-1" d="M283.93,1.7c-2.71,16.55-5.14,33.21-9.52,49.13-4.94,18-13.18,32.57-25.71,42.14-8.94,6.84-18.75,9.15-28.86,9.67-1.64.09-.94-1.17-.67-2.11a146.22,146.22,0,0,1,8.54-22.6c7.57-16.07,17-29.66,29.15-39.56.28-.23.53-.52.8-.78-18.9,5.49-32.3,21.48-43.87,42.12a85.41,85.41,0,0,1,.81-14.49c3.84-27.32,15.85-45.45,34.58-55.81,10.71-5.93,22.05-7.95,33.46-9.36C283.57-.07,284.23-.12,283.93,1.7Z"/><path class="cls-1" d="M71.21,203.66c-1-14.77-6-26.68-15.16-35-13.54-12.34-32.57-9.33-41.65,8.45-.14.28-.3.64-.79.37,0-4-.06-8.17,0-12.29,0-1.89-.37-2.63-1.83-2.56a70.17,70.17,0,0,1-8.58,0c-1.95-.16-2.37.83-2.36,3.26.06,16.59,0,33.19,0,49.78q0,37.6,0,75.21c0,2,.06,3.31,2,3.16a67.84,67.84,0,0,1,8.79,0c1.7.11,2-.82,2-2.89-.08-8.84,0-17.69,0-26.54V240.79l.48-.23A33.65,33.65,0,0,0,20,249.61c12,12.55,30.76,10,41.7-5.68C69.61,232.56,72.28,218.85,71.21,203.66Zm-12.93,5.67c0,19.32-10.47,33.27-24,32.47-6.42-.38-11.63-4.31-15.54-11.14-7.1-12.39-6.63-32.31,1.06-44.07,5.66-8.67,12.85-11.56,21.06-8.76,8.65,2.94,14,10.72,16.47,22.27A38.75,38.75,0,0,1,58.28,209.33Z"/><path class="cls-3" d="M283.93,1.7c-2.71,16.55-5.14,33.21-9.52,49.13-4.94,18-13.18,32.57-25.71,42.14-8.94,6.84-18.75,9.15-28.86,9.67-1.64.09-.94-1.17-.67-2.11a146.22,146.22,0,0,1,8.54-22.6c7.57-16.07,17-29.66,29.15-39.56.28-.23.53-.52.8-.78-18.9,5.49-32.3,21.48-43.87,42.12a85.41,85.41,0,0,1,.81-14.49c3.84-27.32,15.85-45.45,34.58-55.81,10.71-5.93,22.05-7.95,33.46-9.36C283.57-.07,284.23-.12,283.93,1.7Z"/><path class="cls-1" d="M147.43,165.15c0-1.72-.29-2.5-1.69-2.45-3.14.12-6.27.11-9.41,0-1.39-.05-1.72.66-1.69,2.41.08,4.11,0,8.24,0,12.36-1.64-2.27-3-4.58-4.6-6.57-9.1-11.09-24-13.12-35.2-4.77-19.85,14.71-24.44,53.72-9,76.72,11.06,16.49,29.06,19.58,41.87,7.22a35.4,35.4,0,0,0,6.84-9.68c.19,4.15.24,8.19.17,12.22,0,1.8.28,2.68,1.8,2.61,3.07-.15,6.13-.13,9.2,0,1.33,0,1.74-.55,1.73-2.36Q147.39,209,147.43,165.15Zm-21.72,70.73c-13.09,13.51-32,3.32-35.14-18.93a46.36,46.36,0,0,1-.53-6.89c0-14.46,5.26-25.94,13.86-30.8,12.31-6.94,25.2,1.08,29.32,18.27C136.71,212.06,133.65,227.68,125.71,235.88Z"/><path class="cls-2" d="M170.2,49.36c-19.19.17-34.38,21.19-34.28,47.44.11,25.94,15.58,46.55,34.83,46.38,19.56-.17,35.07-21,34.93-46.92C205.52,70,189.8,49.19,170.2,49.36Zm.13,77.85c-12.35-.15-21.85-13.62-21.74-30.83.1-17.39,9.8-30.94,22.08-30.84,12.66.1,22.37,13.64,22.3,31.1S183.09,127.36,170.33,127.21Z"/><path class="cls-2" d="M65.2,88.05C61,50.45,33,41,15.46,56.24,1.1,68.7-4.28,97,3.71,118.13c7.15,18.86,20.07,26.6,35.18,24.38,8.21-1.21,15.23-5.87,20.84-14.24,1-1.5.91-2.23-.19-3.43-1.8-2-3.51-4.1-5.17-6.27-.8-1.06-1.27-1.14-2.13,0a37.06,37.06,0,0,1-4.43,4.88c-8.88,8.09-21.37,7.26-28.6-2.05a30.65,30.65,0,0,1-6.62-18.92c.47-.55,1-.31,1.56-.31q24.54,0,49.09,0a5,5,0,0,1,1,0,1,1,0,0,1,.55.33C66,97.7,65.74,92.84,65.2,88.05Zm-52.38-.4c.78-10.42,6.83-20.29,14.42-23.24,8.08-3.15,17,.48,21.75,8.93a35.29,35.29,0,0,1,4.07,14c.21,2-.31,2.34-1.61,2.32-6.2-.06-12.39,0-18.59,0v0c-6.12,0-12.25,0-18.38,0C13.48,89.63,12.66,89.77,12.82,87.65Z"/><path class="cls-2" d="M129.71,130.26c-6.46,8.33-14.14,12.55-21.08,12.82-22.08.94-38.18-22-36.75-49.88,1-19.06,7.85-33.17,21-40.36s25.22-4,36.13,8.15c1.6,1.77,1.74,2.94.12,4.8a73.31,73.31,0,0,0-5.22,7c-.93,1.35-1.48,1.4-2.6.17-7.42-8.09-15.64-10.28-24.42-4.74-11.19,7-15.72,27.1-9.92,42.82,5.53,15,18.34,20.59,29.6,12.92a19.52,19.52,0,0,0,5-4.83c1-1.37,1.62-1.06,2.47.14,1.86,2.58,3.73,5.13,5.7,7.54C130.77,128.12,130.78,128.89,129.71,130.26Z"/><path class="cls-1" d="M273.65,254c-.45,1.22-1.29.79-2,.8-4.19,0-8.38.07-12.57,0a1.93,1.93,0,0,0-1.37.31c-.81-.25-1.16-1.23-1.65-1.95q-14.2-21-28.4-41.91c-.48-.7-.83-1.68-1.86-2v45.27a.58.58,0,0,1-.11.15s0,0,0,0a.25.25,0,0,1-.33,0,.41.41,0,0,1,0-.08,0,0,0,0,1,0,0,.47.47,0,0,1,0-.31.68.68,0,0,1,.12-.24q0-63.48,0-127a14.7,14.7,0,0,1,.34-4.64l0,76.29v9.59c3.84-5.88,7.24-11.09,10.65-16.29q9.15-14,18.31-27.91c.49-.75.94-1.48,1.83-1.46,5.24.09,10.49.11,15.72.17.1,0,.2.19.47.46-.82,1.2-1.65,2.37-2.46,3.55-8.94,13-17.85,26.1-26.84,39.06-1.25,1.8-1.22,2.79,0,4.58,9.7,13.83,19.31,27.78,29,41.69C272.89,252.68,273.26,253.35,273.65,254Z"/><path class="cls-1" d="M201.52,161.25c-9.75-1.45-18.18,2-24.8,12.2-1,1.55-2,3.18-3,4.88a9.14,9.14,0,0,1-.3-3.42c-.19-4.1.37-8.24-.28-12.33a21.88,21.88,0,0,0-.23,2.4c0-1.52-.46-2.32-1.75-2.29-2.93.06-5.86.05-8.78,0-1.16,0-1.51.66-1.55,2.16-.06,2.49.23,5,.23,7.43q0,18,0,35.91v43.08c0,3.24,0,3.25,2.3,3.25h7.35c2.39,0,2.41,0,2.41-3.17,0-11.68,0-23.35,0-35v0l0-6.65v-.08c0-2.66-.3-5.47.85-7.95l.72-3.44c2.36-10.9,7.6-17.6,15.89-19.74a21,21,0,0,1,9.34-.24c1.19.21,1.71-.22,1.82-1.95.26-4.31.59-8.62,1-12.9C202.94,161.79,202.5,161.4,201.52,161.25Zm-28.61,11.88c0-1.4,0-3.08,0-4.86C172.94,170,173,171.64,172.91,173.13Z"/><path class="cls-1" d="M173.15,254.59v0h0Z"/><path class="cls-1" d="M173.45,207.53a38.32,38.32,0,0,0-.12,5.77q0,19.15,0,38.3c0,.6.05,1.2,0,1.79v0a3.86,3.86,0,0,1-.19,1.16h0a60.52,60.52,0,0,1-12.26,0c0-.91-.14-1.82-.14-2.74q-.09-43.34-.17-86.68c0-2.38.54-3,2.2-2.87,3.44.3,6.91-.32,10.36.35v15.65h-.44c0-3.62,0-7.22,0-10.84s-.27-4.1-3-4.12c-2,0-3.94.09-5.91,0s-2.52,1-2.5,3.43c.06,10,0,20.08,0,30.11v52.49c0,4.7,0,4.7,3.56,4.7,1.77,0,3.55-.12,5.3,0,2,.16,2.62-1,2.6-3.59q-.09-19.87,0-39.77a37.77,37.77,0,0,1,.95-9.21s.12,0,.18,0,.1.11.15.17C173.44,203.52,173.77,205.58,173.45,207.53Z"/><path class="cls-1" d="M173.45,207.53q0,22.74-.09,45.48a2.36,2.36,0,0,1,0,.38v0c0,.38-.13.77-.19,1.16h0q0-19.12,0-38.24v-6.1c0-.22,0-.45,0-.67C173.22,208.89,173.36,208.21,173.45,207.53Z"/><path class="cls-1" d="M272.9,255.11c-5,0-10.11,0-15.17-.05.62-.77,1.37-.6,2.12-.59,3.87,0,7.74.06,11.6,0a10.9,10.9,0,0,0,2.2-.5C274.3,255.44,273.34,255.11,272.9,255.11Z"/><path class="cls-1" d="M.62,294.35h0Z"/></g></g></svg>